<?xml version="1.0" encoding="utf-8"?>
<!-- Generator: Adobe Illustrator 18.1.0, SVG Export Plug-In . SVG Version: 6.00 Build 0)  -->
<!DOCTYPE svg PUBLIC "-//W3C//DTD SVG 1.1//EN" "http://www.w3.org/Graphics/SVG/1.1/DTD/svg11.dtd">
<svg version="1.1" id="Layer_1" xmlns="http://www.w3.org/2000/svg" xmlns:xlink="http://www.w3.org/1999/xlink" x="0px" y="0px"
	 viewBox="0 0 30 30" enable-background="new 0 0 30 30" xml:space="preserve">
<g display="none">
	<g display="inline">
		<path fill="#6DC6F0" d="M15,7.4c2.5,0,4.9,0.6,7.1,1.6c1.9,1,3.5,2.2,4.8,3.5c1.2,1.4,1.5,2,1.5,2.2c-0.1,0.4-0.4,1.2-1.5,2.3
			c-1.4,1.5-3.1,2.7-4.8,3.5c-2.4,1.1-4.8,1.7-7.1,1.7c-2.5,0-4.9-0.6-7.1-1.6c-1.9-1-3.5-2.2-4.8-3.5c-1.2-1.4-1.5-2-1.5-2.2
			c0.1-0.4,0.4-1.2,1.5-2.3C4.5,11.1,6.1,9.9,7.8,9C10.2,7.9,12.6,7.4,15,7.4 M15,20.6L15,20.6c1.6,0,3.1-0.6,4.2-1.7
			c1.2-1.1,1.8-2.5,1.8-4.1c0-1.6-0.6-3-1.8-4.1C18,9.6,16.6,9,15,9c-1.6,0-3.1,0.6-4.2,1.7C9.6,11.8,9,13.2,9,14.8
			c0,1.6,0.6,3,1.8,4.1C11.9,20.1,13.3,20.6,15,20.6 M15,5.9c-2.6,0-5.2,0.6-7.8,1.8c-1.9,1-3.7,2.3-5.3,3.9
			c-1.2,1.2-1.8,2.3-1.9,3.3c0,0.7,0.6,1.8,1.9,3.3c1.4,1.5,3.2,2.8,5.3,3.9c2.5,1.2,5,1.8,7.8,1.8c2.6,0,5.2-0.6,7.8-1.8
			c1.9-1,3.7-2.3,5.3-3.9c1.2-1.2,1.8-2.3,1.9-3.3c0-0.7-0.6-1.8-1.9-3.3c-1.4-1.5-3.2-2.8-5.3-3.9C20.3,6.5,17.7,5.9,15,5.9L15,5.9
			z M15,19.1c-1.2,0-2.3-0.4-3.2-1.3c-0.9-0.9-1.3-1.9-1.3-3.1c0-1.2,0.4-2.2,1.3-3c0.9-0.8,1.9-1.3,3.2-1.3s2.3,0.4,3.2,1.3
			c0.9,0.8,1.3,1.8,1.3,3S19,17,18.2,17.8C17.3,18.7,16.2,19.1,15,19.1L15,19.1z"/>
	</g>
</g>
<g>
	<path fill="#6DC6F0" d="M15.1,2C22.2,2,28,7.8,28,14.9s-5.8,12.9-12.9,12.9S2.1,22.1,2.1,14.9S7.9,2,15.1,2 M15.1,0
		C6.8,0,0.1,6.7,0.1,14.9s6.7,14.9,14.9,14.9S30,23.2,30,14.9S23.3,0,15.1,0L15.1,0z"/>
</g>
<g>
	<path fill="#6DC6F0" d="M16.6,6.6c0,0.8-0.6,1.5-1.6,1.5c-0.9,0-1.5-0.7-1.5-1.5c0-0.9,0.6-1.6,1.6-1.6C16,5.1,16.6,5.7,16.6,6.6z
		 M13.8,24.1V10.5h2.5v13.6H13.8z"/>
</g>
</svg>
